<?xml version="1.0" encoding="utf-8"?>
<!-- Generator: Adobe Illustrator 19.0.0, SVG Export Plug-In . SVG Version: 6.00 Build 0)  -->
<svg version="1.1" id="layer" xmlns="http://www.w3.org/2000/svg" xmlns:xlink="http://www.w3.org/1999/xlink" x="0px" y="0px"
	 viewBox="-153 -46 652 652" style="enable-background:new -153 -46 652 652;" xml:space="preserve">
<style type="text/css">
	.st0{fill:#004C97;}
	.st1{fill:#ED8B00;}
</style>
<path class="st0" d="M364.8,167.2h98.5v151.6v72.6c0,19.4-3.2,38-9.4,55.6c-6.3,17.7-16.1,33.4-29.4,47
	c-13.4,13.7-30.2,24.5-50.7,32.5c-2,0.8-4.2,1.5-6.3,2.2h-2.8V389.7V167.2z M16,177.2c-27.2,6.8-51,17.5-71.2,32.1
	c-21.3,15.6-38.2,36.2-50.4,62c-12.3,25.8-18.4,46-18.4,83.9v173.6H-12V343.5c0-29.2,7.5-38.9,22.4-52.5
	c14.9-13.6,37.9-20.4,68.8-20.4h6.8V167.4C62.2,168.3,38.8,171.5,16,177.2 M303.1,445.4c-21.7,0-37.3-6.3-46.8-19
	c-9.5-12.7-14.2-30.7-14.2-54.1V270.5h64.2V167h-64.2V88.2H136.3v293.7c0,19.9,3,38.8,9,56.7c6,17.9,15.7,33.6,29,47.1
	c13.4,13.4,30.4,24.2,51.1,32.1c20.7,8,45.8,11.9,75.2,11.9c3,0,5.9-0.2,8.8-0.3v-84.4C307.4,445.2,305.3,445.4,303.1,445.4"/>
<path class="st1" d="M471.1,82.4c0,29-25.8,52.6-57.7,52.6c-31.9,0-57.7-23.6-57.7-52.6c0-29.1,25.8-52.6,57.7-52.6
	C445.2,29.8,471.1,53.3,471.1,82.4"/>
</svg>
