<?xml version="1.0" encoding="iso-8859-1"?>
<!-- Generator: Adobe Illustrator 19.0.0, SVG Export Plug-In . SVG Version: 6.00 Build 0)  -->
<svg version="1.1" id="Layer_1" xmlns="http://www.w3.org/2000/svg" xmlns:xlink="http://www.w3.org/1999/xlink" x="0px" y="0px"
	 viewBox="0 0 512 512" style="enable-background:new 0 0 512 512;" xml:space="preserve">
<g>
	<g>
		<path d="M507.063,249.816L262.244,4.892C259.113,1.759,254.867,0,250.439,0H16.742C7.524,0,0.05,7.474,0.05,16.692v233.692
			c0,4.427,1.758,8.671,4.886,11.8l244.825,244.925c6.52,6.521,17.091,6.521,23.608,0.002L507.061,273.42
			C513.579,266.903,513.58,256.334,507.063,249.816z M261.569,471.699L33.435,243.472V33.385h210.088l228.132,228.23
			L261.569,471.699z"/>
	</g>
</g>
<g>
	<g>
		<path d="M116.896,66.769c-27.612,0-50.077,22.464-50.077,50.077s22.464,50.077,50.077,50.077s50.077-22.464,50.077-50.077
			S144.508,66.769,116.896,66.769z M116.896,133.538c-9.204,0-16.692-7.488-16.692-16.692s7.488-16.692,16.692-16.692
			c9.204,0,16.692,7.488,16.692,16.692S126.1,133.538,116.896,133.538z"/>
	</g>
</g>
<g>
</g>
<g>
</g>
<g>
</g>
<g>
</g>
<g>
</g>
<g>
</g>
<g>
</g>
<g>
</g>
<g>
</g>
<g>
</g>
<g>
</g>
<g>
</g>
<g>
</g>
<g>
</g>
<g>
</g>
</svg>
